<svg xmlns="http://www.w3.org/2000/svg" viewBox="0 0 1000 1093.1" width="1000" height="1093.1"><path d="M751.2 505h0M399.5 413.1h0M625.9 718.6h0M339 345.1h0M839.9 495.9h0M417.3 254.9h0M705.2 354.5h0M430.6 369.4h0M704 597.1h0M719.1 701.8h0M619.8 925.8h0M643.9 316.6h0M730.9 441.7h0M692.7 211.2h0M705.2 867.5h0M444.6 319.6h0M914.4 471.3h0M502.5 321.7h0M649.8 399.3h0M533.2 485.3h0M502.7 420.6h0M561.3 757.4h0M783.6 522.7h0M581.2 905.5h0M888.7 481.2h0M940.9 455.8h0M159.8 336.2h0M460.9 352.5h0M745.2 947.1h0M430.6 221.3h0M598.2 402.9h0M648.1 1011.1h0M535.6 216.5h0M670.1 285.4h0M611.5 448.6h0M530.2 290.1h0M809.9 394.2h0M157.9 406.6h0M496.7 220.6h0M974.2 461.9h0M463.2 201.9h0M649.3 571.1h0M142.6 310.1h0M388.4 396.9h0M534 176.4h0M620.8 571.2h0M471.8 244.1h0M771 938h0M391.7 72.5h0M686.7 446.8h0M32.9 375.6h0M522.5 571.5h0M523 197.2h0M716 957.6h0M553.7 519.8h0M654.7 449.9h0M317.3 743.8h0M426.8 178.9h0M415.5 453.4h0M687.8 958.1h0M579.5 801.2h0M766.5 899.6h0M460 287.1h0M845.1 343.4h0M584.3 347.2h0M167.3 370h0M144.3 366.3h0M656.1 340.7h0M471.9 161.1h0M819.9 380.2h0M103.9 315.5h0M653.9 667.5h0M619.1 315.1h0M213.6 435h0M339.5 472.8h0M556.5 551.1h0M453 847.7h0M359.9 697.5h0M545.1 805h0M842.5 529h0M985.3 385h0M846.4 792.2h0M492.1 548.4h0M817.8 615.3h0M692 838.6h0M564.2 657.5h0M817.4 796.2h0M851.1 600.3h0M892.9 503.8h0M768.4 715.6h0M420.7 524.8h0M552.9 168.8h0M821.9 331.4h0M426.4 201.8h0M519.6 340.8h0M838.3 613.9h0M573.6 158h0M458.3 931.7h0M592.5 738.6h0M202.1 183.6h0M617 344.4h0M451.3 889.9h0M783.5 829h0M338.7 320.4h0M307 451.7h0M971.7 389.7h0M571.6 197.4h0M975.3 349.3h0M719.2 464h0M794.3 398.6h0M840.7 687.9h0M639.8 805.6h0M549 575.1h0M476.6 588.1h0M791.6 561.2h0M491.9 486.7h0M329.8 505.4h0M309 351.8h0M960.8 555.7h0M772.6 445.5h0M664 263.4h0M874.5 565.9h0M655.7 798.4h0M635.4 533.9h0M220.1 515.9h0M112.7 363.9h0M265.8 608.2h0M366.7 312.6h0M565 488.8h0M198.1 336.2h0M554.3 897.5h0M657.9 766.9h0M855.7 613.5h0M304.4 560.1h0M495 157.3h0M699 547.6h0M461 911h0M429 430.9h0M936.9 424.7h0M357.9 504.9h0M483.5 340.3h0M983.1 327.2h0M940.1 436.7h0M178.2 226.7h0M478 387.1h0M512.9 768.3h0M751.9 416.2h0M569.8 391.1h0M510.9 451.9h0M697.3 899.7h0M781.2 615h0M246.2 397.7h0M455.2 731.1h0M288.7 348.6h0M543.5 260.4h0M607 953.4h0M953.8 352.2h0M229.7 321.5h0M528.4 447.4h0M959.4 402.7h0M361.7 676.8h0M523.4 409.5h0M656.9 212.4h0M404 680.1h0M439 374.1h0M298.7 515.9h0M302.3 759.7h0M367.1 633.7h0M720.1 744h0M604.9 502.1h0M990.2 481.3h0M581.3 875h0M698.4 405.5h0M660.5 865.4h0M693 749.5h0M400.3 927.5h0M775.8 803.3h0M824 697.7h0M493.2 353.1h0M639.1 933h0M958.2 485.2h0M216.5 388.7h0M144.4 307.7h0M728.9 504.7h0M876.5 495.8h0M772.5 355.9h0M296.8 320.8h0M321.8 464.6h0M214 415.6h0M897.3 560.7h0M823.4 705.2h0M595.3 316.1h0M385 566.1h0M531.7 359h0M187.4 369.5h0M885.1 344.5h0M989.6 345.4h0M643.1 742.1h0M771.4 753.2h0M484.5 278.7h0M212 324.9h0M260.9 8.9h0M578.7 402.8h0M760.4 391.8h0M660.9 435.4h0M646.2 487.2h0M557.3 869.1h0M297 382.4h0M404.7 606h0M149.3 489.9h0M290.7 217.9h0M438.7 460.7h0M781.6 785.5h0M506.7 138.4h0M327.4 715.1h0M113.4 399.1h0M706.3 633.6h0M726 291.7h0M425 317.5h0M850.8 766.1h0M816.8 769.6h0M633.4 748.8h0M398 831.8h0M739.3 330.9h0M668 613h0M499.9 268.6h0M795.3 792.6h0M279.1 316.3h0M377.6 609.4h0M272.3 496.3h0M240.8 373.5h0M818.4 538h0M942.3 329.8h0M606.9 269h0M606.5 289h0M801 689.4h0M788.2 887.2h0M832.9 740.5h0M427.9 345.6h0M352.6 397.4h0M841.8 738h0M536.7 157.9h0M456.2 375.8h0M915.4 344.4h0M522.7 513.6h0M810.3 707.5h0M560.8 342h0M874.2 630.5h0M505.3 618.2h0M232.7 99.5h0M615.3 587h0M311.6 492.5h0M321.7 527.2h0M215 352h0M792 665.4h0M696 741h0M555.6 253.5h0M519.2 705.1h0M623.4 785.6h0M497.6 203.4h0M953.3 364.5h0M540.2 886h0M906.9 558h0M881.2 616.1h0M303.6 430.6h0M687 816.5h0M797 728.6h0M951.4 388.1h0M707.2 418.7h0M854.9 716.7h0M694.8 1016.5h0M290.5 188.1h0M467.5 330.8h0M630.4 659.3h0M369.5 725.2h0M661.4 193.2h0M384 379.1h0M366.2 914.9h0M860.1 448.6h0M622.3 479.7h0M489.6 698.7h0M689.2 992.1h0M741.2 404.4h0M449 528.6h0M396.4 990.3h0M748.6 844.9h0M725 531.4h0M640.5 217.6h0M260.8 114.2h0M126.9 386.8h0M627.1 759.8h0M283.1 200.8h0M859.9 661.3h0M406.6 335.5h0M500.9 238.6h0M904.2 448.1h0M863.4 733.1h0M197.7 434.5h0M804.2 829h0M637.8 676.4h0M854.2 673.1h0M973.7 325.6h0M796.6 455h0M744.6 263.9h0M757.5 805.6h0M237.2 565.3h0M934 348.1h0M810.7 816.1h0M960.3 328.3h0M781.5 743h0M240.6 172.3h0M643.2 765.2h0M84.2 323.8h0M613.1 972.8h0M405.5 577.5h0M844.3 637.6h0M722.5 288.3h0M530.2 389.8h0M388.1 728.5h0M679.2 836.4h0M511.2 485.8h0M390.2 776.5h0M899.9 350.9h0M480.3 477.7h0M844 625.6h0M327.9 401.5h0M211.7 472.5h0M797.1 754.4h0M830.5 671h0M440 421.1h0M809 747.1h0M861.2 684.2h0M445.3 385.1h0M685.5 1073.9h0M249.2 430.2h0M509.5 720.3h0M720.5 499.5h0M227 492.2h0M742 895.2h0M506.8 373.6h0M302.8 203.4h0M858.4 531.2h0M378 945.3h0M635.6 857.4h0M617 823.4h0M718 928.8h0M212.1 521.5h0M573.9 370.1h0M731.3 799.4h0M742 799.4h0M527.4 827.7h0M252.5 415.7h0M698.3 538.9h0M473.7 357.2h0M298.2 243.8h0M263.6 90.2h0M938.8 406.8h0M983.1 398.6h0M827.1 816h0M227.9 264.9h0M996.5 324.1h0M819 641.8h0M475.3 915.8h0M696.9 780h0M801.9 657.6h0M292.2 474.4h0M420.6 161.6h0M800.5 560h0M400.3 354.4h0M196.2 401.9h0M974.1 403.9h0M698.1 965.5h0M664.7 825.6h0M239.8 457h0M93 281.2h0M859.2 584.3h0M292.7 782.4h0M870.2 619.3h0M241 357h0M586.9 785.2h0M385.9 685.1h0M280.7 427.4h0M472.4 140.2h0M398.4 648.9h0M745.6 753.6h0M415.1 960.9h0M769.2 881.5h0M589.2 185h0M773 870.7h0M714.7 668h0M295.2 362.1h0M476.7 762.6h0M833.5 755.3h0M629.5 220.6h0M807.5 552h0M655 887.2h0M340.5 172.4h0M455.9 525.5h0M412.7 938.7h0M698.1 650.9h0M978 411.3h0M278.7 684.8h0M858 473.3h0M560.6 449.3h0M641.6 374.8h0M610.8 892.1h0M363.5 348.4h0M760.8 726.5h0M685.4 459.5h0M403.5 503.4h0M623.5 636.6h0M763.7 784.3h0M807.9 452.8h0M788.4 422.5h0M651.8 863.7h0M805.9 625.8h0M720.5 576.6h0M511.2 148.8h0M620.6 769.9h0M496.5 368.5h0M685.1 610.5h0M352.5 617.6h0M587 144.2h0M844.4 663.7h0M767.3 476.2h0M259.2 536.7h0M926.9 357.9h0M326.3 648h0M836.9 708.8h0M868.8 380.7h0M708 467.9h0M537.6 429.6h0M638.4 896.4h0M579.3 855.3h0M31.8 310.1h0M588.7 220.7h0M271 227.8h0M573.3 449.9h0M261.8 451.1h0M393.6 746.2h0M510.1 311h0M908.5 459.4h0M547.8 863.7h0M815.7 588.8h0M587.8 651.7h0M263.6 467.6h0M336.2 419.5h0M561.1 480.1h0M90.3 391h0M536.9 552.6h0M310.6 86.5h0M743.1 431.5h0M689.9 516.1h0M95.9 378.1h0M484.1 498.7h0M675.6 889.7h0M941.3 346.6h0M535.2 321.6h0M71.5 425.5h0M219.8 237.6h0M269.7 307h0M650.4 255.2h0M706 186.3h0M569.6 530.6h0M567.7 645.7h0M318.1 392.7h0M350.5 77.2h0M834.5 725h0M289.3 269.3h0M369.7 590.8h0M594.1 950h0M748.1 785h0M674.9 923.2h0M867.1 810.6h0M480.1 259h0M136.7 353.7h0M417.8 901.2h0M740.1 932.9h0M670.8 967.7h0M273.5 666.1h0M224.1 462.8h0M659.9 751.1h0M692.7 935.7h0M599.3 189.6h0M779.9 709h0M375.8 529.3h0M90.7 442.3h0M703.5 997.1h0M943 547.1h0M147.5 428.9h0M658.3 650.7h0M569.4 821.3h0M16 347h0M754.3 860.9h0M701.4 688.3h0M288.5 309.3h0M695.1 674.3h0M442 543.5h0M811.1 714.9h0M643 1022.6h0M722.6 884.5h0M793.6 305h0M388.5 800.2h0M425.9 512.2h0M290.9 438.7h0M211.9 304.8h0M268.7 345.8h0M654.1 960.1h0M410.6 799h0M537.7 788.6h0M829.9 646.8h0M608.6 905.3h0M792.8 495.4h0M681 587.8h0M770.1 845.1h0M257.8 362.2h0M169.3 306.3h0M662 977h0M897.3 598.9h0M585.4 968.5h0M622 383.6h0M606.1 471.1h0M178.1 516.9h0M242.5 536.2h0M590.2 946h0M438.5 712.9h0M230.4 31.5h0M364.5 209.6h0M971.2 427.3h0M875.2 530.2h0M826.7 731.9h0M423.2 401.4h0M671.7 777.6h0M292.2 539.6h0M868.6 705.3h0M215 557.4h0M842.7 554.7h0M726.4 545.7h0M775.2 632.1h0M4.8 351.3h0M859.7 813.2h0M558 422.3h0M204.7 206.3h0M454.1 486.7h0M395.5 853.9h0M636.6 960.4h0M642 486.2h0M333.6 794h0M86.3 354.2h0M673 877.4h0M576.2 511.4h0M313.6 212.6h0M281.9 741.7h0M648.8 616.8h0M868.1 728.4h0M176.5 337.5h0M360 353.9h0M658.8 1036.8h0M419.6 603h0M476.8 418.1h0M577 482.5h0M574.4 229.5h0M598.1 280.1h0M515.6 890.4h0M53.7 378.7h0M621.5 907.9h0M277.8 10h0M587.9 770.9h0M730.3 941.1h0M265.9 390.6h0M626.4 601.8h0M263.9 414.9h0M498.9 182h0M573 610.3h0M457.4 416.4h0M496.9 812.1h0M733.9 946.4h0M313.5 643.7h0M248.1 552.5h0M658.2 938.9h0M902.3 429.1h0M400.6 797.7h0M314.8 684.5h0M916.3 524.8h0M292.5 751.1h0M544.5 824.6h0M949.3 559.8h0M749.6 818.7h0M813 804.7h0M642.6 260.3h0M797.9 651.7h0M314.6 386.4h0M732.8 175.5h0M632.4 822.5h0M285.7 562.7h0M521.8 631.2h0M591.2 980.7h0M356.6 841.4h0M860.1 672.3h0M434.5 167h0M604.9 461.7h0M305.6 618.6h0M820.4 450.5h0M427 579.8h0M626.6 863.3h0M869.5 719.8h0M552.6 848.6h0M686 758.6h0M40.9 365.6h0M799.4 839.9h0M782.7 579.3h0M466.5 416.2h0M618.6 793.8h0M119.9 451.4h0M595.2 495.6h0M173.5 436.1h0M582.3 939.7h0M502.9 162.7h0M269.8 340.4h0M726.7 899.2h0M590.4 158h0M248.2 567.7h0M844.4 416.4h0M956.5 418.6h0M257.7 308.9h0M489.8 789.7h0M148.4 388h0M507.9 780.8h0M173.5 410.6h0M405.8 368h0M659 482.2h0M270.7 132.2h0M749.3 960.7h0M987.6 413.1h0M205 369.7h0M672.6 631.6h0M259 580.8h0M298.4 817.1h0M737.6 561.7h0M123.7 343.5h0M591.6 202.3h0M594.6 885.2h0M660.2 627.2h0M237.3 513.6h0M791.1 876.4h0M498.4 449h0M729.3 326.8h0M402.6 478.1h0M406 757.9h0M300.6 581.7h0M116.9 419.2h0M437 435.1h0M256.7 49h0M76.6 420.5h0M59.8 353.5h0M780.9 751.5h0M182.5 467.7h0M281.1 55.6h0M451.4 810h0M324.9 445.2h0M922.2 373.1h0M598 598.7h0M281.8 526.8h0M740.8 604.8h0M84.5 436.6h0M957.9 439.3h0M707.4 768.1h0M678.9 685.3h0M647.2 517.8h0M180.8 502h0M243.7 51.7h0M513.3 800.9h0M229.8 753.6h0M691.8 1033.3h0M543.3 728.5h0M582.6 275.7h0M636.7 845.9h0M670 248.9h0M171.9 397h0M780.4 774h0M330.6 59h0M464.4 381.4h0M144.3 237.7h0M217.9 539.9h0M312.4 329.8h0M677.2 724.2h0M400.3 792.2h0M339.2 564.4h0M707.6 1006.9h0M571.9 515.7h0M393.4 619.4h0M723.5 681.1h0M561.9 827.9h0M324.5 786.7h0M962.6 498.6h0M367.8 321.3h0M56.5 298.4h0M283.4 593.6h0M83 334h0M582.3 828h0M981.7 404.2h0M748 570.2h0M877 403.7h0M317.9 407h0M492 851h0M927.7 491.1h0M453.6 394.5h0M531.2 866.6h0M474 874.2h0M536 338.3h0M336.7 854.8h0M700.5 822.9h0M282.2 389.1h0M662.9 928h0M772.3 781.5h0M301.9 503.8h0M901.1 593.3h0M245.8 484.7h0M483.6 188.2h0M678.4 951.2h0M366.7 874.2h0M134.6 441.2h0M93.2 260.3h0M640.7 783.3h0M239 345.3h0M754.9 838.7h0M685.5 657.2h0M404 725.4h0M619.6 862.3h0M743.9 867.5h0M458.4 456.1h0M401.7 755.4h0M107.3 350.5h0M428.9 803.7h0M345.5 692.6h0M655.7 826.5h0M247.7 380.4h0M978 418h0M316.5 46.2h0M420.1 490h0M226.3 781.6h0M483.5 755.9h0M486.5 538.3h0M795.1 302.5h0M467.7 646.2h0M317.3 773.7h0M736.5 986.6h0M474.7 294.9h0M707.4 791.9h0M610.7 661.6h0M732.4 1020.1h0M464.1 755.4h0M631 844.3h0M304.8 228.1h0M533.7 726h0M424.7 982.7h0M255.9 383.8h0M465.7 425.8h0M726.4 966.2h0M651.8 735.2h0M357.9 674.6h0M448.4 462.6h0M299.9 12.1h0M731.3 1040.9h0M142.8 402.3h0M513.7 184.7h0M380.6 302.1h0M740.3 1014.9h0M548.7 992.6h0M760 968.4h0M685.4 620.6h0M269.9 274.6h0M647 973.7h0M600.4 258.1h0M35.7 414.5h0M486.8 447.6h0M561.1 819.4h0M191.4 419.9h0M281 452.7h0M672.3 1044.4h0M623.6 518.4h0M361.5 612.1h0M854.1 634.6h0M888.1 404.6h0M620.7 748.9h0M533.6 512.4h0M690.5 908.9h0M488.5 834.8h0M73.9 259.3h0M407.5 314.5h0M718 660.8h0M342.8 742.8h0M513.8 371.3h0M232.8 443.5h0M667.2 735.3h0M443.9 497.3h0M782.3 845.6h0M701.2 482.7h0M182.5 354.9h0M220 604.1h0M597 831.5h0M222.3 156.1h0M740.8 537.4h0M511.4 280.8h0M741.3 759.8h0M566.3 370.1h0M227.5 727.5h0M443.6 226.5h0M233.7 734.8h0M266 572.5h0M721.2 755.6h0M801 772.2h0M519.4 371.7h0M716.9 820.5h0M568.4 919.4h0M465.9 771.5h0M114.5 299.9h0M986.6 423.4h0M902.6 574.3h0M566.5 932.7h0M341.9 849.2h0M611.6 192.6h0M728.8 590.3h0M882 586.9h0M369.4 459.6h0M643.7 983.1h0M504 242.7h0M440.7 914.9h0M848 780.5h0M625.3 265.8h0M290.4 777.5h0M773.9 863.6h0M218.3 445.3h0M691.1 889.8h0M678.3 794.3h0M638.4 995.8h0M341.3 864.8h0M460.9 520.8h0M731.7 920.5h0M617.3 811.9h0M727 766h0M362.7 826.6h0M299.6 712.1h0M523.4 778.8h0M600.6 221.9h0M186.8 450.4h0M284.7 26.1h0M340.5 777.8h0M106.5 269.5h0M554.5 352.7h0M263.5 730.9h0M164.7 423.8h0M250.4 463.4h0M689.6 633.4h0M680.1 601.7h0M481.9 222.5h0M566.8 859.5h0M610.2 151.2h0M262.6 370.6h0M325.2 173.7h0M869.3 591.9h0M455.6 502.1h0M244.4 777.7h0M578.5 318.6h0M363.4 652.1h0M514.4 248.6h0M545.8 318.3h0M701.1 945.2h0M309 653.6h0M333.2 40.1h0M750.4 739.8h0M610.5 776.7h0M627.1 890.3h0M328.3 808.7h0M410.4 556.2h0M663.6 1024h0M275.3 93.4h0M282.4 577.7h0M254.4 741.6h0M463.7 790.9h0M594 794.6h0M413.5 495.5h0M343.2 844.9h0M369.6 664.1h0M744.7 976.3h0M481.1 512.5h0M609.4 998h0M487 371.1h0M587.6 241.6h0M61.8 322h0M373.6 704.3h0M36 388.6h0M554.6 299.3h0M83.9 300h0M737.9 781.5h0M596.5 807.6h0M757.2 854h0M749 559.1h0M102.8 369.8h0M609.6 883.8h0M436.1 843.3h0M442.9 933.5h0M281.1 654.6h0M575.4 868.4h0M370.3 954h0M445.5 481.9h0M234.7 469.8h0M784.2 758.6h0M131.4 326h0M177 531h0M28.3 409.8h0M183.2 492h0M499 777.6h0M225.2 346.4h0M247.3 505h0M618.3 961.2h0M100.1 411.6h0M302.2 872.2h0M392.8 257.5h0M174.3 496.8h0M256.4 773.5h0M414.1 478.2h0M491.6 420h0M600.2 1027.9h0M294.1 661.5h0M745.3 921.7h0M739.9 571.2h0M791.9 636.3h0M677.5 678.6h0M43.1 444.1h0M590.1 990.9h0M309.2 880.3h0M237 475h0M208 609.4h0M539 194.3h0M717 820.3h0M573.1 723.5h0M420.3 439.8h0M860.6 709.1h0M619.4 662.5h0M431.1 936.9h0M651.7 598.6h0M623.3 743.7h0M140.9 419.9h0M429.6 620.2h0M300.9 172.4h0M170.8 280.2h0M508.7 856h0M605.9 987.3h0M341.3 214.9h0M404.1 936.1h0M148.6 445.9h0M475.3 478.2h0M703.7 272h0M460 275.9h0M346.3 664h0M310.4 680.2h0M595 250.5h0M263.9 175h0M968.2 408.5h0M430.3 734.1h0M242.1 585.8h0M350.1 515.8h0M594.9 534h0M244.8 67.8h0M633.4 1005.9h0M441.1 839.1h0M637.2 1026.3h0M625.8 736.7h0M380.2 902.4h0M466 463.7h0M343.5 451.2h0M688 1041h0M676.4 541.6h0M138.8 332.9h0M283.5 297.3h0M603.7 806.7h0M227.1 790.5h0M375.3 689.5h0M318.8 660.6h0M783.7 474h0M321.4 181.4h0M92.7 431.4h0M142.3 455.7h0M102.2 419.6h0M554.9 950.9h0M691.4 810.8h0M131.1 448.8h0M356.5 530.3h0M568.9 838.4h0M296.3 729h0M334.3 587.4h0M577.1 521.9h0M563 378h0M481.2 769.1h0M720.2 899.7h0M607.3 854.7h0M247.5 707.8h0M601.5 768.1h0M208.1 588.2h0M206.2 561.6h0M764.6 594.6h0M549.7 814.7h0M558.9 943.8h0M712.5 971.8h0M456.8 945.2h0M90.6 304.9h0M255.1 519.8h0M599.9 1005.4h0M634.6 985.6h0M442.8 906.7h0M713.8 1019.4h0M598 789.5h0M47.1 393.4h0M231.5 767.3h0M571.9 270.8h0M142.6 467h0M450.7 700.9h0M441 469.3h0M351.1 870.2h0M665.5 961.9h0M562.2 308.9h0M238.6 305.5h0M676 1021h0M405.3 308.9h0M737.6 964.9h0M145.1 266.3h0M961.1 418.3h0M525.9 839.1h0M229.2 44.2h0M481.2 533.4h0M373.8 143.3h0M482.4 777.7h0M590.5 763.4h0M490.7 908.6h0M371.3 539.8h0M309.5 478.7h0M484.6 892.6h0M666.2 999.4h0M614.3 988h0M240.7 723.1h0M204.4 306h0M268.7 436.3h0M417 598.5h0M278.5 90.3h0M177.4 420h0M303 658.9h0M558.1 702.1h0M269.3 746h0M977.6 425.8h0M305.3 745.3h0M57.9 428.8h0M463.9 508.6h0M287.2 760.8h0M500.9 981.7h0M436.7 498.1h0M480.1 846.2h0M280.6 767.5h0M453.7 912.2h0M484.2 511.8h0M254.1 682.9h0M179.8 555.6h0M495.4 766.6h0M462.1 409.6h0M450.3 521.4h0M670.6 869.8h0M333.3 138.1h0M219.2 814.4h0M615.8 1023.5h0M434.1 556.6h0M211.4 244.3h0M150.3 332.1h0M492.7 902.7h0M309.8 719.5h0M282.8 677.4h0M103.6 249.8h0M283.9 747.3h0M638.3 621.6h0M325.8 221.8h0M666.1 651.5h0M345 79.3h0M213.8 620.4h0M622.6 981.1h0M642.7 783.8h0M568.7 832.7h0M492 203.4h0M281 619.2h0M670.7 1083.9h0M236.1 260.6h0M503.9 285.1h0M502.5 195.4h0M21.9 305.1h0M596.5 860.6h0M578.6 955.6h0M388.5 629.2h0M304.1 683.4h0M315.4 678.1h0M253.3 690.4h0M526.5 811.7h0M561.6 849.4h0M482.5 804.7h0M369.7 782.2h0M304.8 418h0M510 820.9h0M519.7 427h0M422.6 680h0M621.3 226.3h0M465.3 434.8h0M533.8 880.1h0M545.6 445.8h0M436.6 559.2h0M34.8 346.1h0M672 657.7h0M396 884.6h0M178.1 305.7h0M135.2 320.3h0M257.8 259.8h0M182.1 303.9h0M364.3 898.9h0M263 771.7h0M297.3 689.6h0M223 369.8h0M227 609.1h0M248.8 762.9h0M570.4 874.3h0M143.6 431.6h0M540.8 323.8h0M507.6 891.4h0M335.8 209.1h0M628.1 794.5h0M583.9 200.6h0M844.7 393.4h0M528.6 857.6h0M544 834h0M550.7 906.1h0M662.3 525.6h0M265.8 337.6h0M68.9 256.4h0M246.9 450.7h0M260.4 346.5h0M558.1 803.3h0M303.5 689h0M341.1 703.4h0M409.8 774.6h0M567.9 951.2h0M509.9 262.1h0M546.8 814.3h0M366 869.5h0M731.5 832.8h0M218.2 532.6h0M359.3 388.3h0M109.1 426.7h0M357.9 447.3h0M354.6 894.7h0M363.8 882.7h0M306 819.5h0M322.5 807.8h0M646.2 638.7h0M509.2 916.4h0M557.9 810.3h0M372.2 690.5h0M340.9 625.1h0M766.5 706.5h0M541.9 851.5h0M663.3 646h0M278.7 601.9h0M411.7 655h0M363.1 424.9h0M368.4 343.1h0M520.1 814h0M528.5 905.2h0M208 504.4h0M182.4 265.6h0M568.5 857.4h0M390.3 630.2h0M580.2 210.3h0M557.7 833.2h0M485.6 910.8h0M597.9 867.2h0M678.6 1003.1h0M400.5 656.7h0M603.3 248.8h0M329 419.6h0M468.6 465.1h0M387.6 960.3h0M520 870.8h0M542.8 856h0M610.6 878.2h0M316 192.6h0M323.7 759.2h0M548.6 442.4h0M211.7 590.9h0M252.6 813h0M308.1 758.8h0M340.8 786.9h0M256.6 723.2h0M215.2 793.8h0M553.9 963.7h0M284 584.1h0M450.8 945.7h0M318.2 753.1h0M146.5 407h0M227.7 228.3h0M282.6 754.2h0M559.3 921.1h0M435.2 508.7h0M301.7 191.4h0M245.7 785.4h0M501.9 395.5h0M686.2 655h0M449.9 950.9h0M270.9 758.6h0M423 830.3h0M353.3 754.4h0M555.3 855.7h0M883 446.9h0M504.9 763.6h0M247.1 804.4h0M737.5 585.4h0M349.8 723.9h0M647.7 1042.5h0M365.3 362.9h0M661.2 1050.5h0M326 547.3h0M682.5 742.2h0M445.7 502.8h0M82.5 290.6h0M328.7 699.2h0M367 656.8h0M261.2 656.2h0M458.1 439.9h0M597.4 206.9h0M317.1 205.5h0M225.6 702h0M342.3 732.8h0M254.9 756.6h0M201.4 145.8h0M702.9 1051.9h0M650 643.9h0M422 731.8h0M512.4 874.3h0M201.8 619.8h0M258 727.6h0M353.9 213.4h0M176.3 425.3h0M285.9 727h0M449 654.7h0M494.3 436.4h0M686.1 1048.5h0M679 795.9h0M262.5 677.9h0M470.6 784.4h0M627.9 555.3h0M573 825.1h0M496.2 835.6h0M292.9 630.6h0M726.2 665.4h0M246.8 661.9h0M660.7 1070.7h0M563.9 878.7h0M452.9 902.6h0M493.5 898.1h0M498.9 900.6h0M501.8 899.1h0M236.8 689.3h0M109.4 333.2h0M126.6 463.6h0M323.7 270.4h0M941.3 390.1h0M467.9 448.6h0M319.8 862.2h0M240.3 741.4h0M217.6 806.4h0M355.1 745.5h0M319.3 720.3h0M576.6 848.1h0M273 769.1h0M273.4 797.6h0M159.9 277h0M189.7 638.1h0M411.3 855.9h0M278.8 758.2h0M257.2 750.1h0M459.7 468.8h0M306.6 792.9h0M390.9 364.5h0M659 1045.3h0M290.5 670.2h0M467.2 808h0M249.2 784.3h0M616.3 1021.5h0M716 522.4h0M251.1 254.2h0M210.6 378.4h0M369.9 786h0M503.5 898.2h0M279.6 787.1h0M480.4 773.1h0M613.2 535.6h0M285.9 783.8h0M335.2 798.7h0M378.6 654.9h0M351.1 751.3h0M220.8 782.9h0M489.2 405.8h0M604 1008.5h0M460.5 815.2h0M364.8 778.2h0M597 982.9h0M528.5 365.5h0M427.3 947.9h0M205.5 568.2h0M355.6 604.3h0M704.6 1023.3h0M469.5 779.1h0M415.2 470.1h0M356.8 778.9h0M481.2 451.9h0M572.1 865.9h0M310.5 311.9h0M244.4 745.8h0M269.8 797.2h0M205.8 700h0M402.2 983.3h0M227.9 338.2h0M219.6 709.4h0M731.7 772h0M461.9 470h0M211.4 572.5h0M317.5 797.6h0M474.9 410.1h0M244.4 809.7h0M452.3 441.9h0M524 854.5h0M469.1 428.6h0M196.6 394.9h0M729.4 519.9h0M309.9 388.4h0M246.1 802.6h0M320.6 821.3h0M460.6 542.5h0M205.6 595.7h0M564.7 909.2h0M483.7 419.4h0M452 746.7h0M690.7 723.4h0M744.3 585.4h0M340.8 825.8h0M457.2 472.8h0M381.3 977.7h0M250.3 720.1h0M282.2 789h0M216.3 782.1h0M562.5 846h0M259.5 673.5h0M322.6 715.4h0M706.6 751.7h0M435.7 442.3h0M538.5 421.1h0M225.1 736.7h0M730.9 815.4h0M213.1 593.4h0M447.8 746.2h0M327.8 699.8h0M727.7 635h0M312.6 715h0M724.9 1045.5h0M223 814.4h0M732.5 802.4h0M579.1 833.8h0M701.8 807h0M222.3 362h0M429.3 482h0M510.8 556.4h0M750.6 582.1h0M697 848.8h0M614 892.2h0M306.1 800.7h0M315.1 54.6h0M446.9 662.8h0M457.8 557h0M129.5 369.4h0M586.6 525.9h0M386.7 666.7h0M363.4 688.1h0M368.8 784.1h0M636.2 466h0M662.3 474.2h0M702.3 758h0M392.3 584.8h0M333 559.1h0M188.9 642.6h0M432.7 791.1h0M749.5 667.3h0M391.4 605.9h0M556.6 821.1h0M656.8 474.9h0M454.9 747.6h0M752.4 759.2h0M599.7 465.7h0M643.4 582.2h0M413.7 788.4h0M590 865.6h0M531.8 903h0M683.2 851.5h0M721.4 799.5h0M679.6 745.2h0M358.2 600.8h0M452.2 440.7h0M430.5 446.5h0M620.3 485.7h0M269.8 65.6h0M701.8 767.3h0M584.1 859.7h0M534.8 417.2h0M521.5 859.3h0M478.4 505.6h0M346.6 678.9h0M716.7 671.7h0M524.2 809.6h0M455.6 778.2h0M339.6 832.6h0M394.5 858.6h0M318.9 817.1h0M350.5 688.5h0M656.8 486h0M738.4 823.5h0M729.4 665.6h0M504.5 444.4h0M306.2 796.5h0M752.9 756.5h0M736.5 772.1h0M763.4 588.3h0M595.6 464.7h0M626 467.9h0M740.2 827.8h0M754.1 614.1h0M376.1 776.1h0M721.5 659.4h0M493.9 872.9h0M744.8 825.2h0M666.4 819.3h0M585.6 561.1h0M754.9 576.9h0M742.7 728h0M544 416.8h0M361.7 600.9h0M734.9 736.9h0M745.4 735.8h0M753.9 585.5h0M438.3 427.9h0M635.8 588.7h0M731.6 605.1h0M731.9 710.1h0" fill="none" stroke="#1B1A17" stroke-opacity="0.22" stroke-width="4" stroke-linecap="round"/><g fill="none" stroke="#1B1A17" stroke-width="2.2"><circle cx="361" cy="700.2" r="6"/><circle cx="327.8" cy="753.6" r="6"/><circle cx="526.4" cy="676.5" r="6"/><circle cx="538.7" cy="432.7" r="6"/><circle cx="685.3" cy="678" r="6"/><circle cx="400.4" cy="791" r="6"/><circle cx="290.7" cy="690.7" r="6"/><circle cx="542.1" cy="867.9" r="6"/><circle cx="722.4" cy="784.8" r="6"/><circle cx="571.9" cy="494" r="6"/><circle cx="461.7" cy="543.3" r="6"/><circle cx="560.1" cy="854" r="6"/><circle cx="682.5" cy="776.4" r="6"/><circle cx="707.5" cy="823.7" r="6"/><circle cx="542.3" cy="875.1" r="6"/><circle cx="394.9" cy="593.9" r="6"/><circle cx="476.5" cy="438.6" r="6"/><circle cx="651.4" cy="551.8" r="6"/><circle cx="341.5" cy="677.1" r="6"/><circle cx="481.9" cy="452.5" r="6"/><circle cx="459.8" cy="468.2" r="6"/><circle cx="323" cy="684.8" r="6"/><circle cx="525.9" cy="439" r="6"/><circle cx="440.6" cy="881.4" r="6"/><circle cx="624.8" cy="798.6" r="6"/><circle cx="343.8" cy="540.8" r="6"/><circle cx="488.4" cy="892.8" r="6"/><circle cx="755.3" cy="583.4" r="6"/><circle cx="675.8" cy="818.2" r="6"/><circle cx="649.1" cy="790.9" r="6"/><circle cx="444.5" cy="830" r="6"/><circle cx="587.9" cy="893.6" r="6"/><circle cx="329.4" cy="675.2" r="6"/><circle cx="756.5" cy="585.4" r="6"/><circle cx="740.8" cy="735.2" r="6"/><circle cx="589.2" cy="477.6" r="6"/><circle cx="625.9" cy="843" r="6"/><circle cx="370.1" cy="538.4" r="6"/><circle cx="404.8" cy="531.3" r="6"/><circle cx="700.5" cy="724" r="6"/><circle cx="768.6" cy="584" r="6"/><circle cx="506.5" cy="521.1" r="6"/><circle cx="664.2" cy="788.4" r="6"/><circle cx="608.2" cy="844" r="6"/><circle cx="350.1" cy="761.9" r="6"/><circle cx="551.1" cy="806.8" r="6"/><circle cx="753.4" cy="619" r="6"/><circle cx="382.3" cy="820.2" r="6"/><circle cx="323.9" cy="695.4" r="6"/><circle cx="700.2" cy="731" r="6"/><circle cx="288.8" cy="794.1" r="6"/><circle cx="378.2" cy="482.6" r="6"/><circle cx="472.5" cy="804.4" r="6"/><circle cx="508.7" cy="904" r="6"/><circle cx="486.2" cy="409.3" r="6"/><circle cx="399.2" cy="525.7" r="6"/><circle cx="679.9" cy="781.3" r="6"/><circle cx="772.1" cy="730.1" r="6"/><circle cx="342.6" cy="683.1" r="6"/><circle cx="509.5" cy="887.9" r="6"/><circle cx="749" cy="764.8" r="6"/><circle cx="422" cy="862.8" r="6"/><circle cx="686.3" cy="800.9" r="6"/><circle cx="493.7" cy="882.7" r="6"/><circle cx="528.2" cy="878.6" r="6"/><circle cx="595.1" cy="861.1" r="6"/><circle cx="329.3" cy="734.5" r="6"/><circle cx="752.4" cy="707.9" r="6"/><circle cx="392.8" cy="552.5" r="6"/><circle cx="595.8" cy="639.7" r="6"/><circle cx="515.8" cy="537.6" r="6"/><circle cx="487.7" cy="915.8" r="6"/><circle cx="445.8" cy="835.1" r="6"/><circle cx="392.3" cy="862.3" r="6"/><circle cx="396.8" cy="485.9" r="6"/><circle cx="620.8" cy="671.4" r="6"/><circle cx="710.6" cy="749" r="6"/><circle cx="323.9" cy="816.1" r="6"/><circle cx="336.6" cy="672.9" r="6"/><circle cx="672.4" cy="585" r="6"/><circle cx="690.2" cy="720.9" r="6"/><circle cx="405.1" cy="652" r="6"/><circle cx="309.5" cy="741.9" r="6"/><circle cx="464.3" cy="409.2" r="6"/><circle cx="735.7" cy="612.6" r="6"/><circle cx="635.7" cy="818.2" r="6"/><circle cx="376.3" cy="599.5" r="6"/><circle cx="700.9" cy="581.5" r="6"/><circle cx="679.7" cy="815.5" r="6"/><circle cx="685.7" cy="727.5" r="6"/><circle cx="347.6" cy="819.1" r="6"/><circle cx="348.8" cy="607.9" r="6"/><circle cx="378.5" cy="857" r="6"/><circle cx="611.8" cy="547.9" r="6"/><circle cx="736.4" cy="598.3" r="6"/><circle cx="517.3" cy="842.3" r="6"/><circle cx="327.6" cy="728.6" r="6"/><circle cx="709.9" cy="813.3" r="6"/><circle cx="644.9" cy="793.8" r="6"/><circle cx="701" cy="700.4" r="6"/><circle cx="673.2" cy="826.5" r="6"/><circle cx="721.5" cy="816.3" r="6"/><circle cx="589" cy="834.7" r="6"/><circle cx="306.4" cy="781.2" r="6"/><circle cx="326.3" cy="662.1" r="6"/><circle cx="686.2" cy="735.6" r="6"/><circle cx="758.4" cy="833.3" r="6"/><circle cx="701.4" cy="622.6" r="6"/><circle cx="689.6" cy="593.7" r="6"/><circle cx="707.8" cy="692.2" r="6"/><circle cx="718.4" cy="753.8" r="6"/><circle cx="692.1" cy="830.2" r="6"/><circle cx="730" cy="731.4" r="6"/><circle cx="747.2" cy="822.3" r="6"/><circle cx="688.7" cy="769.1" r="6"/><circle cx="692.6" cy="627.8" r="6"/><circle cx="428.6" cy="467.5" r="6"/><circle cx="314.8" cy="746.7" r="6"/><circle cx="656.2" cy="785.4" r="6"/><circle cx="664.6" cy="776.1" r="6"/><circle cx="447.2" cy="801.2" r="6"/><circle cx="390.1" cy="540.4" r="6"/><circle cx="364.7" cy="681.3" r="6"/><circle cx="726.8" cy="740.6" r="6"/><circle cx="723" cy="758.5" r="6"/><circle cx="745" cy="649" r="6"/><circle cx="669.1" cy="789.3" r="6"/><circle cx="419.7" cy="482.4" r="6"/><circle cx="688.7" cy="719" r="6"/><circle cx="339.7" cy="709.7" r="6"/><circle cx="372.8" cy="479.8" r="6"/><circle cx="330.1" cy="699.1" r="6"/><circle cx="499.6" cy="391.1" r="6"/><circle cx="755.3" cy="746.6" r="6"/><circle cx="693.8" cy="794.1" r="6"/><circle cx="470" cy="446.3" r="6"/><circle cx="365.4" cy="488.8" r="6"/><circle cx="670" cy="602.9" r="6"/><circle cx="385.1" cy="530.4" r="6"/><circle cx="552.2" cy="411.9" r="6"/><circle cx="518.5" cy="815.9" r="6"/><circle cx="693.1" cy="575" r="6"/><circle cx="729.6" cy="658.9" r="6"/><circle cx="597.8" cy="454.6" r="6"/><circle cx="367.1" cy="646.5" r="6"/><circle cx="517.1" cy="441.8" r="6"/><circle cx="677.2" cy="781.6" r="6"/><circle cx="461.5" cy="422.7" r="6"/><circle cx="461.2" cy="421.5" r="6"/><circle cx="424.7" cy="817.5" r="6"/><circle cx="514.9" cy="411.1" r="6"/><circle cx="313.1" cy="690.9" r="6"/><circle cx="725.6" cy="761.2" r="6"/><circle cx="718.1" cy="813.1" r="6"/><circle cx="335.1" cy="623.4" r="6"/><circle cx="697.4" cy="573.9" r="6"/><circle cx="415" cy="508.8" r="6"/><circle cx="740.1" cy="780.3" r="6"/><circle cx="763.3" cy="733" r="6"/><circle cx="377.9" cy="825.6" r="6"/><circle cx="480.6" cy="414.2" r="6"/><circle cx="614.7" cy="796.5" r="6"/><circle cx="434.7" cy="434.8" r="6"/><circle cx="455" cy="428.4" r="6"/><circle cx="532.4" cy="678" r="6"/><circle cx="637.5" cy="847.9" r="6"/></g></svg>